<svg width="131" height="34" viewBox="0 0 131 34" fill="none" xmlns="http://www.w3.org/2000/svg">
<path d="M0.52 33L11.68 5H18.08L29.16 33H21.28L16.48 20C16.2133 19.28 15.9733 18.6133 15.76 18C15.5467 17.3867 15.3467 16.7867 15.16 16.2C14.9733 15.6133 14.7867 15.0133 14.6 14.4C14.44 13.7867 14.2933 13.12 14.16 12.4L15.44 12.36C15.28 13.1333 15.1067 13.8267 14.92 14.44C14.76 15.0533 14.5867 15.64 14.4 16.2C14.2133 16.76 14 17.3467 13.76 17.96C13.5467 18.5733 13.3067 19.2533 13.04 20L8.24 33H0.52ZM5.96 28.36L8.32 22.76H21.28L23.48 28.36H5.96ZM38.5253 33.4C36.312 33.4 34.3653 33.0533 32.6853 32.36C31.0053 31.6667 29.6986 30.7733 28.7653 29.68L33.1253 25.92C33.9786 26.6933 34.9386 27.2667 36.0053 27.64C37.0986 28.0133 38.0586 28.2 38.8853 28.2C39.1786 28.2 39.4453 28.1733 39.6853 28.12C39.9253 28.0667 40.112 27.9867 40.2453 27.88C40.4053 27.7467 40.5253 27.6133 40.6053 27.48C40.712 27.32 40.7653 27.1467 40.7653 26.96C40.7653 26.5067 40.5386 26.16 40.0853 25.92C39.8453 25.8133 39.4453 25.68 38.8853 25.52C38.352 25.3333 37.632 25.1333 36.7253 24.92C35.6053 24.6267 34.6053 24.28 33.7253 23.88C32.8453 23.4533 32.0986 22.96 31.4853 22.4C30.8986 21.84 30.432 21.2 30.0853 20.48C29.7653 19.7333 29.6053 18.92 29.6053 18.04C29.6053 16.9733 29.8453 16.0267 30.3253 15.2C30.8053 14.3733 31.472 13.6667 32.3253 13.08C33.1786 12.4667 34.1386 12.0133 35.2053 11.72C36.272 11.4 37.3653 11.24 38.4853 11.24C39.7386 11.24 40.912 11.3733 42.0053 11.64C43.1253 11.88 44.1653 12.24 45.1253 12.72C46.112 13.1733 46.992 13.7333 47.7653 14.4L43.9253 18.64C43.472 18.24 42.9386 17.8667 42.3253 17.52C41.7386 17.1733 41.1253 16.8933 40.4853 16.68C39.8453 16.44 39.2453 16.32 38.6853 16.32C38.3386 16.32 38.0453 16.3467 37.8053 16.4C37.5653 16.4533 37.3653 16.5333 37.2053 16.64C37.0453 16.7467 36.9253 16.88 36.8453 17.04C36.7653 17.2 36.7253 17.3733 36.7253 17.56C36.7253 17.8 36.792 18.0267 36.9253 18.24C37.0586 18.4533 37.272 18.6267 37.5653 18.76C37.8053 18.8933 38.2053 19.0667 38.7653 19.28C39.352 19.4667 40.192 19.7067 41.2853 20C42.512 20.3467 43.5786 20.7467 44.4853 21.2C45.392 21.6533 46.1253 22.1733 46.6853 22.76C47.0853 23.2133 47.392 23.72 47.6053 24.28C47.8186 24.8133 47.9253 25.4133 47.9253 26.08C47.9253 27.4933 47.512 28.76 46.6853 29.88C45.8853 30.9733 44.7786 31.84 43.3653 32.48C41.952 33.0933 40.3386 33.4 38.5253 33.4ZM52.4734 33V6.28H59.9134V33H52.4734ZM48.9534 18V11.68H63.6334V18H48.9534ZM67.0344 33V11.68H73.9944L74.3944 18.68L72.8344 17.48C73.181 16.3067 73.7144 15.2533 74.4344 14.32C75.181 13.36 76.0744 12.6133 77.1144 12.08C78.1544 11.52 79.2477 11.24 80.3944 11.24C80.8744 11.24 81.3277 11.28 81.7544 11.36C82.181 11.4133 82.581 11.4933 82.9544 11.6L80.9144 19.84C80.621 19.6533 80.2077 19.4933 79.6744 19.36C79.141 19.2 78.5677 19.12 77.9544 19.12C77.421 19.12 76.941 19.2133 76.5144 19.4C76.0877 19.56 75.7277 19.8 75.4344 20.12C75.141 20.44 74.9144 20.8267 74.7544 21.28C74.5944 21.7067 74.5144 22.2133 74.5144 22.8V33H67.0344ZM86.1259 33V11.68H93.5659V33H86.1259ZM89.8459 7.64C88.4859 7.64 87.4326 7.33333 86.6859 6.72C85.9393 6.08 85.5659 5.18666 85.5659 4.04C85.5659 2.97333 85.9393 2.10666 86.6859 1.44C87.4593 0.746665 88.5126 0.399998 89.8459 0.399998C91.1793 0.399998 92.2193 0.719998 92.9659 1.36C93.7393 1.97333 94.1259 2.86667 94.1259 4.04C94.1259 5.10667 93.7393 5.97333 92.9659 6.64C92.1926 7.30667 91.1526 7.64 89.8459 7.64ZM111.872 33L108.352 27.04L105.592 23.16L97.4316 11.68H106.232L109.512 17.2L112.512 21.32L120.632 33H111.872ZM97.1116 33L105.792 20.56L109.712 25.2L105.872 33H97.1116ZM111.712 24.16L107.832 19.52L111.592 11.68H120.352L111.712 24.16ZM126.541 33.44C125.341 33.44 124.407 33.1067 123.741 32.44C123.101 31.7733 122.781 30.8267 122.781 29.6C122.781 28.48 123.127 27.56 123.821 26.84C124.514 26.12 125.421 25.76 126.541 25.76C127.714 25.76 128.634 26.0933 129.301 26.76C129.967 27.4267 130.301 28.3733 130.301 29.6C130.301 30.72 129.954 31.64 129.261 32.36C128.567 33.08 127.661 33.44 126.541 33.44Z" fill="#FFCA5F"/>
</svg>
